<svg xmlns="http://www.w3.org/2000/svg" width="256" height="256" viewBox="0 0 100 100"><rect width="100" height="100" rx="50" fill="#dd1683"></rect><path d="M47.60 75.76L47.60 75.76Q47.60 80.48 38.40 80.48L38.40 80.48Q36.40 80.48 36.04 78.44Q35.68 76.40 35.68 73.36Q35.68 70.32 36.12 66.84Q36.56 63.36 37.28 59.28L37.28 59.28Q38.64 51.44 41.16 42.36Q43.68 33.28 46.16 28.32L46.16 28.32Q41.12 28.64 36.16 30.12Q31.20 31.60 29.12 32.20Q27.04 32.80 25.68 32.80Q24.32 32.80 24.32 31.92L24.32 31.92Q24.32 30.88 25.92 28.84Q27.52 26.80 30.48 24.72L30.48 24.72Q38 19.60 47.20 19.52L47.20 19.52L73.52 19.76Q75.68 19.76 75.68 21.44L75.68 21.44Q75.68 21.92 75.04 23.16Q74.40 24.40 73.92 25.84L73.92 25.84Q72.88 28.72 69.56 28.72Q66.24 28.72 53.76 28.24L53.76 28.24Q53.44 31.76 52.48 37.24Q51.52 42.72 50.40 49.20L50.40 49.20Q47.68 65.76 47.60 75.76Z" fill="#fff"></path></svg>